<mxfile host="Electron" agent="Mozilla/5.0 (Windows NT 10.0; Win64; x64) AppleWebKit/537.36 (KHTML, like Gecko) draw.io/26.2.15 Chrome/134.0.6998.205 Electron/35.2.1 Safari/537.36" version="26.2.15">
  <diagram name="Page-1" id="6AFFPQcfIctPR9utz1Mh">
    <mxGraphModel dx="2453" dy="2137" grid="1" gridSize="10" guides="1" tooltips="1" connect="1" arrows="1" fold="1" page="1" pageScale="1" pageWidth="850" pageHeight="1100" math="0" shadow="0">
      <root>
        <mxCell id="0" />
        <mxCell id="1" parent="0" />
        <mxCell id="OZcbzKRimT51Lw24ezZG-42" value="" style="rounded=0;whiteSpace=wrap;html=1;fillColor=none;movable=0;resizable=0;rotatable=0;deletable=0;editable=0;locked=1;connectable=0;" vertex="1" parent="1">
          <mxGeometry x="-70" y="-10" width="1320" height="700" as="geometry" />
        </mxCell>
        <mxCell id="OZcbzKRimT51Lw24ezZG-23" value="" style="rounded=1;whiteSpace=wrap;html=1;fillColor=none;strokeColor=default;dashed=1;movable=0;resizable=0;rotatable=0;deletable=0;editable=0;locked=1;connectable=0;" vertex="1" parent="1">
          <mxGeometry x="630" y="160" width="530" height="480" as="geometry" />
        </mxCell>
        <mxCell id="OZcbzKRimT51Lw24ezZG-22" value="" style="rounded=1;whiteSpace=wrap;html=1;fillColor=none;strokeColor=default;dashed=1;movable=0;resizable=0;rotatable=0;deletable=0;editable=0;locked=1;connectable=0;" vertex="1" parent="1">
          <mxGeometry x="20" y="160" width="550" height="480" as="geometry" />
        </mxCell>
        <mxCell id="OZcbzKRimT51Lw24ezZG-3" value="crm_cust_info" style="swimlane;fontStyle=0;childLayout=stackLayout;horizontal=1;startSize=30;horizontalStack=0;resizeParent=1;resizeParentMax=0;resizeLast=0;collapsible=1;marginBottom=0;whiteSpace=wrap;html=1;rounded=1;fillColor=#1ba1e2;fontColor=#ffffff;strokeColor=#006EAF;fontSize=18;" vertex="1" parent="1">
          <mxGeometry x="350" y="300" width="180" height="100" as="geometry" />
        </mxCell>
        <mxCell id="OZcbzKRimT51Lw24ezZG-4" value="cst_id&lt;div&gt;cst_key&lt;/div&gt;" style="text;strokeColor=none;fillColor=none;align=left;verticalAlign=middle;spacingLeft=4;spacingRight=4;overflow=hidden;points=[[0,0.5],[1,0.5]];portConstraint=eastwest;rotatable=0;whiteSpace=wrap;html=1;fontSize=15;" vertex="1" parent="OZcbzKRimT51Lw24ezZG-3">
          <mxGeometry y="30" width="180" height="50" as="geometry" />
        </mxCell>
        <mxCell id="OZcbzKRimT51Lw24ezZG-45" value="CUSTOMERS" style="text;html=1;strokeColor=#005700;fillColor=#008a00;align=center;verticalAlign=middle;whiteSpace=wrap;overflow=hidden;fontColor=#ffffff;" vertex="1" parent="OZcbzKRimT51Lw24ezZG-3">
          <mxGeometry y="80" width="180" height="20" as="geometry" />
        </mxCell>
        <mxCell id="OZcbzKRimT51Lw24ezZG-7" value="crm_prd_info" style="swimlane;fontStyle=0;childLayout=stackLayout;horizontal=1;startSize=30;horizontalStack=0;resizeParent=1;resizeParentMax=0;resizeLast=0;collapsible=1;marginBottom=0;whiteSpace=wrap;html=1;rounded=1;fillColor=#1ba1e2;fontColor=#ffffff;strokeColor=#006EAF;fontSize=18;" vertex="1" parent="1">
          <mxGeometry x="350" y="477.5" width="180" height="80" as="geometry" />
        </mxCell>
        <mxCell id="OZcbzKRimT51Lw24ezZG-8" value="prd_key" style="text;strokeColor=none;fillColor=none;align=left;verticalAlign=middle;spacingLeft=4;spacingRight=4;overflow=hidden;points=[[0,0.5],[1,0.5]];portConstraint=eastwest;rotatable=0;whiteSpace=wrap;html=1;fontSize=15;" vertex="1" parent="OZcbzKRimT51Lw24ezZG-7">
          <mxGeometry y="30" width="180" height="30" as="geometry" />
        </mxCell>
        <mxCell id="OZcbzKRimT51Lw24ezZG-50" value="PRODUCTS" style="text;html=1;strokeColor=#B09500;fillColor=#e3c800;align=center;verticalAlign=middle;whiteSpace=wrap;overflow=hidden;fontColor=#000000;" vertex="1" parent="OZcbzKRimT51Lw24ezZG-7">
          <mxGeometry y="60" width="180" height="20" as="geometry" />
        </mxCell>
        <mxCell id="OZcbzKRimT51Lw24ezZG-9" value="crm_sales_details" style="swimlane;fontStyle=0;childLayout=stackLayout;horizontal=1;startSize=30;horizontalStack=0;resizeParent=1;resizeParentMax=0;resizeLast=0;collapsible=1;marginBottom=0;whiteSpace=wrap;html=1;rounded=1;fillColor=#1ba1e2;fontColor=#ffffff;strokeColor=#006EAF;fontSize=18;" vertex="1" parent="1">
          <mxGeometry x="40" y="372.5" width="180" height="110" as="geometry" />
        </mxCell>
        <mxCell id="OZcbzKRimT51Lw24ezZG-10" value="sls_cust_id&lt;div&gt;sls_prd_key&lt;/div&gt;" style="text;strokeColor=none;fillColor=none;align=left;verticalAlign=middle;spacingLeft=4;spacingRight=4;overflow=hidden;points=[[0,0.5],[1,0.5]];portConstraint=eastwest;rotatable=0;whiteSpace=wrap;html=1;fontSize=15;" vertex="1" parent="OZcbzKRimT51Lw24ezZG-9">
          <mxGeometry y="30" width="180" height="60" as="geometry" />
        </mxCell>
        <mxCell id="OZcbzKRimT51Lw24ezZG-53" value="SALES" style="text;html=1;strokeColor=#C73500;fillColor=#fa6800;align=center;verticalAlign=middle;whiteSpace=wrap;overflow=hidden;fontColor=#000000;" vertex="1" parent="OZcbzKRimT51Lw24ezZG-9">
          <mxGeometry y="90" width="180" height="20" as="geometry" />
        </mxCell>
        <mxCell id="OZcbzKRimT51Lw24ezZG-11" style="edgeStyle=orthogonalEdgeStyle;rounded=0;orthogonalLoop=1;jettySize=auto;html=1;entryX=0;entryY=0.5;entryDx=0;entryDy=0;" edge="1" parent="1" source="OZcbzKRimT51Lw24ezZG-10" target="OZcbzKRimT51Lw24ezZG-4">
          <mxGeometry relative="1" as="geometry" />
        </mxCell>
        <mxCell id="OZcbzKRimT51Lw24ezZG-12" style="edgeStyle=orthogonalEdgeStyle;rounded=0;orthogonalLoop=1;jettySize=auto;html=1;entryX=0;entryY=0.5;entryDx=0;entryDy=0;" edge="1" parent="1" source="OZcbzKRimT51Lw24ezZG-10" target="OZcbzKRimT51Lw24ezZG-8">
          <mxGeometry relative="1" as="geometry" />
        </mxCell>
        <mxCell id="OZcbzKRimT51Lw24ezZG-13" value="erp_cust_az12" style="swimlane;fontStyle=0;childLayout=stackLayout;horizontal=1;startSize=30;horizontalStack=0;resizeParent=1;resizeParentMax=0;resizeLast=0;collapsible=1;marginBottom=0;whiteSpace=wrap;html=1;rounded=1;fillColor=#a20025;fontColor=#ffffff;strokeColor=#6F0000;fontSize=18;" vertex="1" parent="1">
          <mxGeometry x="821.25" y="245" width="180" height="80" as="geometry" />
        </mxCell>
        <mxCell id="OZcbzKRimT51Lw24ezZG-14" value="cid" style="text;strokeColor=none;fillColor=none;align=left;verticalAlign=middle;spacingLeft=4;spacingRight=4;overflow=hidden;points=[[0,0.5],[1,0.5]];portConstraint=eastwest;rotatable=0;whiteSpace=wrap;html=1;fontSize=15;" vertex="1" parent="OZcbzKRimT51Lw24ezZG-13">
          <mxGeometry y="30" width="180" height="30" as="geometry" />
        </mxCell>
        <mxCell id="OZcbzKRimT51Lw24ezZG-48" value="CUSTOMERS" style="text;html=1;strokeColor=#005700;fillColor=#008a00;align=center;verticalAlign=middle;whiteSpace=wrap;overflow=hidden;fontColor=#ffffff;" vertex="1" parent="OZcbzKRimT51Lw24ezZG-13">
          <mxGeometry y="60" width="180" height="20" as="geometry" />
        </mxCell>
        <mxCell id="OZcbzKRimT51Lw24ezZG-16" value="erp_loc_a101" style="swimlane;fontStyle=0;childLayout=stackLayout;horizontal=1;startSize=30;horizontalStack=0;resizeParent=1;resizeParentMax=0;resizeLast=0;collapsible=1;marginBottom=0;whiteSpace=wrap;html=1;rounded=1;fillColor=#a20025;fontColor=#ffffff;strokeColor=#6F0000;fontSize=18;" vertex="1" parent="1">
          <mxGeometry x="823.75" y="390" width="180" height="80" as="geometry" />
        </mxCell>
        <mxCell id="OZcbzKRimT51Lw24ezZG-17" value="cid" style="text;strokeColor=none;fillColor=none;align=left;verticalAlign=middle;spacingLeft=4;spacingRight=4;overflow=hidden;points=[[0,0.5],[1,0.5]];portConstraint=eastwest;rotatable=0;whiteSpace=wrap;html=1;fontSize=15;" vertex="1" parent="OZcbzKRimT51Lw24ezZG-16">
          <mxGeometry y="30" width="180" height="30" as="geometry" />
        </mxCell>
        <mxCell id="OZcbzKRimT51Lw24ezZG-49" value="CUSTOMERS" style="text;html=1;strokeColor=#005700;fillColor=#008a00;align=center;verticalAlign=middle;whiteSpace=wrap;overflow=hidden;fontColor=#ffffff;" vertex="1" parent="OZcbzKRimT51Lw24ezZG-16">
          <mxGeometry y="60" width="180" height="20" as="geometry" />
        </mxCell>
        <mxCell id="OZcbzKRimT51Lw24ezZG-19" value="erp_px_cat_g1v2" style="swimlane;fontStyle=0;childLayout=stackLayout;horizontal=1;startSize=30;horizontalStack=0;resizeParent=1;resizeParentMax=0;resizeLast=0;collapsible=1;marginBottom=0;whiteSpace=wrap;html=1;rounded=1;fillColor=#a20025;fontColor=#ffffff;strokeColor=#6F0000;fontSize=18;" vertex="1" parent="1">
          <mxGeometry x="826.25" y="540" width="180" height="80" as="geometry" />
        </mxCell>
        <mxCell id="OZcbzKRimT51Lw24ezZG-20" value="id" style="text;strokeColor=none;fillColor=none;align=left;verticalAlign=middle;spacingLeft=4;spacingRight=4;overflow=hidden;points=[[0,0.5],[1,0.5]];portConstraint=eastwest;rotatable=0;whiteSpace=wrap;html=1;fontSize=15;" vertex="1" parent="OZcbzKRimT51Lw24ezZG-19">
          <mxGeometry y="30" width="180" height="30" as="geometry" />
        </mxCell>
        <mxCell id="OZcbzKRimT51Lw24ezZG-51" value="PRODUCTS" style="text;html=1;strokeColor=#B09500;fillColor=#e3c800;align=center;verticalAlign=middle;whiteSpace=wrap;overflow=hidden;fontColor=#000000;" vertex="1" parent="OZcbzKRimT51Lw24ezZG-19">
          <mxGeometry y="60" width="180" height="20" as="geometry" />
        </mxCell>
        <mxCell id="OZcbzKRimT51Lw24ezZG-21" style="edgeStyle=orthogonalEdgeStyle;rounded=0;orthogonalLoop=1;jettySize=auto;html=1;entryX=0;entryY=0.5;entryDx=0;entryDy=0;" edge="1" parent="1" source="OZcbzKRimT51Lw24ezZG-8" target="OZcbzKRimT51Lw24ezZG-20">
          <mxGeometry relative="1" as="geometry" />
        </mxCell>
        <mxCell id="OZcbzKRimT51Lw24ezZG-24" value="Customer Details" style="rounded=0;whiteSpace=wrap;html=1;fillColor=none;strokeColor=none;fontSize=16;" vertex="1" parent="1">
          <mxGeometry x="340" y="270" width="210" height="20" as="geometry" />
        </mxCell>
        <mxCell id="OZcbzKRimT51Lw24ezZG-25" value="Current &amp;amp; History product Information" style="rounded=0;whiteSpace=wrap;html=1;fillColor=none;strokeColor=none;fontSize=16;" vertex="1" parent="1">
          <mxGeometry x="340" y="442.5" width="210" height="20" as="geometry" />
        </mxCell>
        <mxCell id="OZcbzKRimT51Lw24ezZG-26" value="Transactional Records &amp;amp; Sales &amp;amp; Orders" style="rounded=0;whiteSpace=wrap;html=1;fillColor=none;strokeColor=none;fontSize=16;" vertex="1" parent="1">
          <mxGeometry x="50" y="337.5" width="170" height="20" as="geometry" />
        </mxCell>
        <mxCell id="OZcbzKRimT51Lw24ezZG-27" value="Product Categories" style="rounded=0;whiteSpace=wrap;html=1;fillColor=none;strokeColor=none;fontSize=16;" vertex="1" parent="1">
          <mxGeometry x="811.25" y="510" width="210" height="20" as="geometry" />
        </mxCell>
        <mxCell id="OZcbzKRimT51Lw24ezZG-28" value="Extra Customer Information (Birth Date)" style="rounded=0;whiteSpace=wrap;html=1;fillColor=none;strokeColor=none;fontSize=16;" vertex="1" parent="1">
          <mxGeometry x="770" y="220" width="287.5" height="20" as="geometry" />
        </mxCell>
        <mxCell id="OZcbzKRimT51Lw24ezZG-31" value="Location of Customers (Country)" style="rounded=0;whiteSpace=wrap;html=1;fillColor=none;strokeColor=none;fontSize=16;" vertex="1" parent="1">
          <mxGeometry x="795" y="360" width="262.5" height="20" as="geometry" />
        </mxCell>
        <mxCell id="OZcbzKRimT51Lw24ezZG-34" style="edgeStyle=orthogonalEdgeStyle;rounded=0;orthogonalLoop=1;jettySize=auto;html=1;entryX=0;entryY=0.5;entryDx=0;entryDy=0;" edge="1" parent="1" source="OZcbzKRimT51Lw24ezZG-4" target="OZcbzKRimT51Lw24ezZG-17">
          <mxGeometry relative="1" as="geometry" />
        </mxCell>
        <mxCell id="OZcbzKRimT51Lw24ezZG-38" style="edgeStyle=orthogonalEdgeStyle;rounded=0;orthogonalLoop=1;jettySize=auto;html=1;entryX=0.018;entryY=0.242;entryDx=0;entryDy=0;entryPerimeter=0;" edge="1" parent="1" source="OZcbzKRimT51Lw24ezZG-4" target="OZcbzKRimT51Lw24ezZG-14">
          <mxGeometry relative="1" as="geometry" />
        </mxCell>
        <mxCell id="OZcbzKRimT51Lw24ezZG-39" value="CRM" style="rounded=0;whiteSpace=wrap;html=1;fillColor=#1ba1e2;strokeColor=#006EAF;fontSize=25;labelBackgroundColor=none;fontStyle=1;fontColor=#ffffff;" vertex="1" parent="1">
          <mxGeometry x="200" y="140" width="210" height="40" as="geometry" />
        </mxCell>
        <mxCell id="OZcbzKRimT51Lw24ezZG-41" value="ERP" style="rounded=0;whiteSpace=wrap;html=1;fillColor=#a20025;strokeColor=#6F0000;fontSize=25;labelBackgroundColor=none;fontStyle=1;fontColor=#ffffff;" vertex="1" parent="1">
          <mxGeometry x="790" y="140" width="210" height="40" as="geometry" />
        </mxCell>
        <mxCell id="OZcbzKRimT51Lw24ezZG-43" value="Table Integration Drawing&lt;div&gt;&lt;font style=&quot;font-size: 16px;&quot;&gt;(How Tables are related)&lt;/font&gt;&lt;/div&gt;" style="rounded=0;whiteSpace=wrap;html=1;fillColor=none;strokeColor=none;fontSize=30;" vertex="1" parent="1">
          <mxGeometry x="300" y="30" width="630" height="60" as="geometry" />
        </mxCell>
      </root>
    </mxGraphModel>
  </diagram>
</mxfile>
